<mxfile host="app.diagrams.net" agent="Mozilla/5.0 (Windows NT 10.0; Win64; x64) AppleWebKit/537.36 (KHTML, like Gecko) Chrome/128.0.0.0 YaBrowser/24.10.0.0 Safari/537.36" version="24.8.6">
  <diagram name="Диаграмма классов для игры Тетрис" id="kfvz6w6xAoVxWVqMSBBk">
    <mxGraphModel dx="910" dy="507" grid="1" gridSize="10" guides="1" tooltips="1" connect="1" arrows="1" fold="1" page="1" pageScale="1" pageWidth="1169" pageHeight="1654" math="0" shadow="0">
      <root>
        <mxCell id="0" />
        <mxCell id="1" parent="0" />
        <mxCell id="4S76jrjOpWO9Tuhp8xzF-52" value="&#xa;    &#xa;        &#xa;        &#xa;        &#xa;        &#xa;    &#xa;    &#xa;        &#xa;        &#xa;        &#xa;        &#xa;    &#xa;    &#xa;        &#xa;        &#xa;    &#xa;    &#xa;        &#xa;        &#xa;        &#xa;    &#xa;    &#xa;        &#xa;    &#xa;    &#xa;        &#xa;    &#xa;    &#xa;        &#xa;        &#xa;    &#xa;    &#xa;        &#xa;        &#xa;        &#xa;        &#xa;    &#xa;    &#xa;        &#xa;        &#xa;    &#xa;    &#xa;        &#xa;    &#xa;    &#xa;        &#xa;        &#xa;    &#xa;    &#xa;        &#xa;        &#xa;    &#xa;    &#xa;        &#xa;        &#xa;    &#xa;    &#xa;        &#xa;    &#xa;    &#xa;    &#xa;    &#xa;    &#xa;    &#xa;    &#xa;" style="text;whiteSpace=wrap;html=1;" parent="1" vertex="1">
          <mxGeometry width="260" height="970" as="geometry" />
        </mxCell>
        <mxCell id="YDc8JTq9BG1FTdDbgutB-31" value="&lt;p style=&quot;margin:0px;margin-top:4px;text-align:center;&quot;&gt;Game&lt;/p&gt;&lt;hr size=&quot;1&quot; style=&quot;border-style:solid;&quot;&gt;&lt;p style=&quot;margin:0px;margin-left:4px;&quot;&gt;+&amp;nbsp;&lt;span style=&quot;background-color: initial;&quot;&gt;- score: int&lt;/span&gt;&lt;/p&gt;&amp;nbsp;+ level: int&lt;br&gt;&amp;nbsp;+ isRunning: boolean&lt;div&gt;&amp;nbsp;+ soundManager : SoundManager&amp;nbsp;&lt;/div&gt;&lt;div&gt;&amp;nbsp;+ shapeFactory : ShapeFactory&lt;/div&gt;&lt;hr size=&quot;1&quot; style=&quot;border-style:solid;&quot;&gt;&lt;p style=&quot;margin:0px;margin-left:4px;&quot;&gt;+ startGame(): void&lt;/p&gt;&lt;p style=&quot;margin:0px;margin-left:4px;&quot;&gt;+ endGame():&amp;nbsp;&lt;span style=&quot;background-color: initial;&quot;&gt;void&lt;/span&gt;&lt;/p&gt;&lt;p style=&quot;margin:0px;margin-left:4px;&quot;&gt;&lt;span style=&quot;background-color: initial;&quot;&gt;+ update():&amp;nbsp;&lt;/span&gt;&lt;span style=&quot;background-color: initial;&quot;&gt;void&lt;/span&gt;&lt;/p&gt;&lt;p style=&quot;margin:0px;margin-left:4px;&quot;&gt;&lt;span style=&quot;background-color: initial;&quot;&gt;+ draw() :&amp;nbsp;&lt;/span&gt;&lt;span style=&quot;background-color: initial;&quot;&gt;void&lt;/span&gt;&lt;/p&gt;&lt;p style=&quot;margin:0px;margin-left:4px;&quot;&gt;+ addSM(sm: SM) : void&lt;/p&gt;&lt;p style=&quot;margin:0px;margin-left:4px;&quot;&gt;+&lt;span style=&quot;background-color: initial;&quot;&gt;&amp;nbsp;delSM(sm: SM) : void&lt;/span&gt;&lt;/p&gt;&lt;p style=&quot;margin:0px;margin-left:4px;&quot;&gt;+ addSF(sf: SF) : void&lt;span style=&quot;background-color: initial;&quot;&gt;&lt;br&gt;&lt;/span&gt;&lt;/p&gt;&lt;p style=&quot;margin:0px;margin-left:4px;&quot;&gt;+ delSF(sf: SF) : void&lt;br&gt;&lt;/p&gt;&lt;p style=&quot;margin:0px;margin-left:4px;&quot;&gt;+ setSB() : void&lt;br&gt;&lt;/p&gt;&lt;p style=&quot;margin:0px;margin-left:4px;&quot;&gt;+ getSB() : ScoreBoard&lt;br&gt;&lt;/p&gt;&lt;p style=&quot;margin:0px;margin-left:4px;&quot;&gt;+ setBoard() : void&lt;br&gt;&lt;/p&gt;&lt;p style=&quot;margin:0px;margin-left:4px;&quot;&gt;+ getBoard() : Board&lt;br&gt;&lt;/p&gt;" style="verticalAlign=top;align=left;overflow=fill;html=1;whiteSpace=wrap;" parent="1" vertex="1">
          <mxGeometry x="260" y="50" width="160" height="300" as="geometry" />
        </mxCell>
        <mxCell id="YDc8JTq9BG1FTdDbgutB-32" value="Score" style="swimlane;fontStyle=0;childLayout=stackLayout;horizontal=1;startSize=26;fillColor=none;horizontalStack=0;resizeParent=1;resizeParentMax=0;resizeLast=0;collapsible=1;marginBottom=0;whiteSpace=wrap;html=1;" parent="1" vertex="1">
          <mxGeometry x="470" y="50" width="140" height="78" as="geometry" />
        </mxCell>
        <mxCell id="YDc8JTq9BG1FTdDbgutB-33" value="+ name : String" style="text;strokeColor=none;fillColor=none;align=left;verticalAlign=top;spacingLeft=4;spacingRight=4;overflow=hidden;rotatable=0;points=[[0,0.5],[1,0.5]];portConstraint=eastwest;whiteSpace=wrap;html=1;" parent="YDc8JTq9BG1FTdDbgutB-32" vertex="1">
          <mxGeometry y="26" width="140" height="26" as="geometry" />
        </mxCell>
        <mxCell id="YDc8JTq9BG1FTdDbgutB-34" value="+ score : int" style="text;strokeColor=none;fillColor=none;align=left;verticalAlign=top;spacingLeft=4;spacingRight=4;overflow=hidden;rotatable=0;points=[[0,0.5],[1,0.5]];portConstraint=eastwest;whiteSpace=wrap;html=1;" parent="YDc8JTq9BG1FTdDbgutB-32" vertex="1">
          <mxGeometry y="52" width="140" height="26" as="geometry" />
        </mxCell>
        <mxCell id="YDc8JTq9BG1FTdDbgutB-36" value="&lt;span style=&quot;font-weight: normal;&quot;&gt;ShapeFactory&lt;/span&gt;" style="swimlane;fontStyle=1;align=center;verticalAlign=top;childLayout=stackLayout;horizontal=1;startSize=26;horizontalStack=0;resizeParent=1;resizeParentMax=0;resizeLast=0;collapsible=1;marginBottom=0;whiteSpace=wrap;html=1;" parent="1" vertex="1">
          <mxGeometry x="70" y="240" width="160" height="60" as="geometry" />
        </mxCell>
        <mxCell id="YDc8JTq9BG1FTdDbgutB-38" value="" style="line;strokeWidth=1;fillColor=none;align=left;verticalAlign=middle;spacingTop=-1;spacingLeft=3;spacingRight=3;rotatable=0;labelPosition=right;points=[];portConstraint=eastwest;strokeColor=inherit;" parent="YDc8JTq9BG1FTdDbgutB-36" vertex="1">
          <mxGeometry y="26" width="160" height="8" as="geometry" />
        </mxCell>
        <mxCell id="YDc8JTq9BG1FTdDbgutB-39" value="+ createShape() : Shape" style="text;strokeColor=none;fillColor=none;align=left;verticalAlign=top;spacingLeft=4;spacingRight=4;overflow=hidden;rotatable=0;points=[[0,0.5],[1,0.5]];portConstraint=eastwest;whiteSpace=wrap;html=1;" parent="YDc8JTq9BG1FTdDbgutB-36" vertex="1">
          <mxGeometry y="34" width="160" height="26" as="geometry" />
        </mxCell>
        <mxCell id="YDc8JTq9BG1FTdDbgutB-40" value="&lt;span style=&quot;font-weight: normal;&quot;&gt;Board&lt;/span&gt;" style="swimlane;fontStyle=1;align=center;verticalAlign=top;childLayout=stackLayout;horizontal=1;startSize=26;horizontalStack=0;resizeParent=1;resizeParentMax=0;resizeLast=0;collapsible=1;marginBottom=0;whiteSpace=wrap;html=1;" parent="1" vertex="1">
          <mxGeometry x="270" y="384" width="200" height="230" as="geometry" />
        </mxCell>
        <mxCell id="YDc8JTq9BG1FTdDbgutB-41" value="+ width : int&lt;div&gt;+ height : int&lt;/div&gt;&lt;div&gt;+ grid : Cell[][]&lt;/div&gt;&lt;div&gt;+ cell : Cell&lt;/div&gt;" style="text;strokeColor=none;fillColor=none;align=left;verticalAlign=top;spacingLeft=4;spacingRight=4;overflow=hidden;rotatable=0;points=[[0,0.5],[1,0.5]];portConstraint=eastwest;whiteSpace=wrap;html=1;" parent="YDc8JTq9BG1FTdDbgutB-40" vertex="1">
          <mxGeometry y="26" width="200" height="74" as="geometry" />
        </mxCell>
        <mxCell id="YDc8JTq9BG1FTdDbgutB-42" value="" style="line;strokeWidth=1;fillColor=none;align=left;verticalAlign=middle;spacingTop=-1;spacingLeft=3;spacingRight=3;rotatable=0;labelPosition=right;points=[];portConstraint=eastwest;strokeColor=inherit;" parent="YDc8JTq9BG1FTdDbgutB-40" vertex="1">
          <mxGeometry y="100" width="200" height="8" as="geometry" />
        </mxCell>
        <mxCell id="YDc8JTq9BG1FTdDbgutB-43" value="+ addShape(shape : Shape) : void&lt;div&gt;+ isLineComplete(row : int) : booolean&lt;/div&gt;&lt;div&gt;+ clearLine(ro : int) : void&lt;/div&gt;&lt;div&gt;+ addCell(cell: Cell) : void&lt;br&gt;&lt;/div&gt;&lt;div&gt;+ delCell(cell: Cell) : void&lt;br&gt;&lt;/div&gt;&lt;div&gt;+ setShape() : void&lt;br&gt;&lt;/div&gt;&lt;div&gt;+ getShape() : Shape&lt;br&gt;&lt;/div&gt;" style="text;strokeColor=none;fillColor=none;align=left;verticalAlign=top;spacingLeft=4;spacingRight=4;overflow=hidden;rotatable=0;points=[[0,0.5],[1,0.5]];portConstraint=eastwest;whiteSpace=wrap;html=1;" parent="YDc8JTq9BG1FTdDbgutB-40" vertex="1">
          <mxGeometry y="108" width="200" height="122" as="geometry" />
        </mxCell>
        <mxCell id="YDc8JTq9BG1FTdDbgutB-44" value="&lt;span style=&quot;font-weight: normal;&quot;&gt;SoundManager&lt;/span&gt;" style="swimlane;fontStyle=1;align=center;verticalAlign=top;childLayout=stackLayout;horizontal=1;startSize=26;horizontalStack=0;resizeParent=1;resizeParentMax=0;resizeLast=0;collapsible=1;marginBottom=0;whiteSpace=wrap;html=1;" parent="1" vertex="1">
          <mxGeometry x="540" y="242" width="190" height="94" as="geometry" />
        </mxCell>
        <mxCell id="YDc8JTq9BG1FTdDbgutB-45" value="+ sounds: HashMap&amp;lt;String, Sound&amp;gt;" style="text;strokeColor=none;fillColor=none;align=left;verticalAlign=top;spacingLeft=4;spacingRight=4;overflow=hidden;rotatable=0;points=[[0,0.5],[1,0.5]];portConstraint=eastwest;whiteSpace=wrap;html=1;" parent="YDc8JTq9BG1FTdDbgutB-44" vertex="1">
          <mxGeometry y="26" width="190" height="34" as="geometry" />
        </mxCell>
        <mxCell id="YDc8JTq9BG1FTdDbgutB-46" value="" style="line;strokeWidth=1;fillColor=none;align=left;verticalAlign=middle;spacingTop=-1;spacingLeft=3;spacingRight=3;rotatable=0;labelPosition=right;points=[];portConstraint=eastwest;strokeColor=inherit;" parent="YDc8JTq9BG1FTdDbgutB-44" vertex="1">
          <mxGeometry y="60" width="190" height="8" as="geometry" />
        </mxCell>
        <mxCell id="YDc8JTq9BG1FTdDbgutB-47" value="+ playSound(name:String) : void" style="text;strokeColor=none;fillColor=none;align=left;verticalAlign=top;spacingLeft=4;spacingRight=4;overflow=hidden;rotatable=0;points=[[0,0.5],[1,0.5]];portConstraint=eastwest;whiteSpace=wrap;html=1;" parent="YDc8JTq9BG1FTdDbgutB-44" vertex="1">
          <mxGeometry y="68" width="190" height="26" as="geometry" />
        </mxCell>
        <mxCell id="YDc8JTq9BG1FTdDbgutB-48" value="&lt;span style=&quot;font-weight: normal;&quot;&gt;ScoreBoard&lt;/span&gt;" style="swimlane;fontStyle=1;align=center;verticalAlign=top;childLayout=stackLayout;horizontal=1;startSize=26;horizontalStack=0;resizeParent=1;resizeParentMax=0;resizeLast=0;collapsible=1;marginBottom=0;whiteSpace=wrap;html=1;" parent="1" vertex="1">
          <mxGeometry x="800" y="240" width="190" height="130" as="geometry" />
        </mxCell>
        <mxCell id="YDc8JTq9BG1FTdDbgutB-49" value="+ scores : List&amp;lt;Score&amp;gt;" style="text;strokeColor=none;fillColor=none;align=left;verticalAlign=top;spacingLeft=4;spacingRight=4;overflow=hidden;rotatable=0;points=[[0,0.5],[1,0.5]];portConstraint=eastwest;whiteSpace=wrap;html=1;" parent="YDc8JTq9BG1FTdDbgutB-48" vertex="1">
          <mxGeometry y="26" width="190" height="26" as="geometry" />
        </mxCell>
        <mxCell id="YDc8JTq9BG1FTdDbgutB-50" value="" style="line;strokeWidth=1;fillColor=none;align=left;verticalAlign=middle;spacingTop=-1;spacingLeft=3;spacingRight=3;rotatable=0;labelPosition=right;points=[];portConstraint=eastwest;strokeColor=inherit;" parent="YDc8JTq9BG1FTdDbgutB-48" vertex="1">
          <mxGeometry y="52" width="190" height="8" as="geometry" />
        </mxCell>
        <mxCell id="YDc8JTq9BG1FTdDbgutB-51" value="+ addScore(score : Score) : void&lt;div&gt;+ getHighScore() : int&lt;/div&gt;" style="text;strokeColor=none;fillColor=none;align=left;verticalAlign=top;spacingLeft=4;spacingRight=4;overflow=hidden;rotatable=0;points=[[0,0.5],[1,0.5]];portConstraint=eastwest;whiteSpace=wrap;html=1;" parent="YDc8JTq9BG1FTdDbgutB-48" vertex="1">
          <mxGeometry y="60" width="190" height="70" as="geometry" />
        </mxCell>
        <mxCell id="YDc8JTq9BG1FTdDbgutB-52" value="C &lt;span style=&quot;font-weight: normal;&quot;&gt;LineShape&lt;/span&gt;" style="swimlane;fontStyle=1;align=center;verticalAlign=top;childLayout=stackLayout;horizontal=1;startSize=26;horizontalStack=0;resizeParent=1;resizeParentMax=0;resizeLast=0;collapsible=1;marginBottom=0;whiteSpace=wrap;html=1;" parent="1" vertex="1">
          <mxGeometry x="1080" y="244" width="200" height="140" as="geometry" />
        </mxCell>
        <mxCell id="YDc8JTq9BG1FTdDbgutB-53" value="+ scores : List&amp;lt;Score&amp;gt;" style="text;strokeColor=none;fillColor=none;align=left;verticalAlign=top;spacingLeft=4;spacingRight=4;overflow=hidden;rotatable=0;points=[[0,0.5],[1,0.5]];portConstraint=eastwest;whiteSpace=wrap;html=1;" parent="YDc8JTq9BG1FTdDbgutB-52" vertex="1">
          <mxGeometry y="26" width="200" height="26" as="geometry" />
        </mxCell>
        <mxCell id="YDc8JTq9BG1FTdDbgutB-54" value="" style="line;strokeWidth=1;fillColor=none;align=left;verticalAlign=middle;spacingTop=-1;spacingLeft=3;spacingRight=3;rotatable=0;labelPosition=right;points=[];portConstraint=eastwest;strokeColor=inherit;" parent="YDc8JTq9BG1FTdDbgutB-52" vertex="1">
          <mxGeometry y="52" width="200" height="8" as="geometry" />
        </mxCell>
        <mxCell id="YDc8JTq9BG1FTdDbgutB-55" value="+ addScore(score : Score) : void&lt;div&gt;+ getHighScore() : int&lt;/div&gt;" style="text;strokeColor=none;fillColor=none;align=left;verticalAlign=top;spacingLeft=4;spacingRight=4;overflow=hidden;rotatable=0;points=[[0,0.5],[1,0.5]];portConstraint=eastwest;whiteSpace=wrap;html=1;" parent="YDc8JTq9BG1FTdDbgutB-52" vertex="1">
          <mxGeometry y="60" width="200" height="80" as="geometry" />
        </mxCell>
        <mxCell id="YDc8JTq9BG1FTdDbgutB-56" value="&lt;span style=&quot;font-weight: normal;&quot;&gt;SquareShape&lt;/span&gt;" style="swimlane;fontStyle=1;align=center;verticalAlign=top;childLayout=stackLayout;horizontal=1;startSize=26;horizontalStack=0;resizeParent=1;resizeParentMax=0;resizeLast=0;collapsible=1;marginBottom=0;whiteSpace=wrap;html=1;" parent="1" vertex="1">
          <mxGeometry x="1400" y="251" width="160" height="130" as="geometry" />
        </mxCell>
        <mxCell id="YDc8JTq9BG1FTdDbgutB-58" value="" style="line;strokeWidth=1;fillColor=none;align=left;verticalAlign=middle;spacingTop=-1;spacingLeft=3;spacingRight=3;rotatable=0;labelPosition=right;points=[];portConstraint=eastwest;strokeColor=inherit;" parent="YDc8JTq9BG1FTdDbgutB-56" vertex="1">
          <mxGeometry y="26" width="160" height="8" as="geometry" />
        </mxCell>
        <mxCell id="YDc8JTq9BG1FTdDbgutB-59" value="+ rotate() : void&lt;div&gt;+ moveDown() : void&lt;/div&gt;&lt;div&gt;+ moveLeft() : void&lt;/div&gt;&lt;div&gt;+ moveRight() : void&lt;/div&gt;&lt;div&gt;&amp;nbsp;+ create() : void&lt;br&gt;&amp;nbsp;+ del() : void&lt;br&gt;&lt;/div&gt;" style="text;strokeColor=none;fillColor=none;align=left;verticalAlign=top;spacingLeft=4;spacingRight=4;overflow=hidden;rotatable=0;points=[[0,0.5],[1,0.5]];portConstraint=eastwest;whiteSpace=wrap;html=1;" parent="YDc8JTq9BG1FTdDbgutB-56" vertex="1">
          <mxGeometry y="34" width="160" height="96" as="geometry" />
        </mxCell>
        <mxCell id="YDc8JTq9BG1FTdDbgutB-60" value="&lt;span style=&quot;font-weight: normal;&quot;&gt;TShape&lt;/span&gt;" style="swimlane;fontStyle=1;align=center;verticalAlign=top;childLayout=stackLayout;horizontal=1;startSize=26;horizontalStack=0;resizeParent=1;resizeParentMax=0;resizeLast=0;collapsible=1;marginBottom=0;whiteSpace=wrap;html=1;" parent="1" vertex="1">
          <mxGeometry x="1660" y="251" width="160" height="140" as="geometry" />
        </mxCell>
        <mxCell id="YDc8JTq9BG1FTdDbgutB-62" value="" style="line;strokeWidth=1;fillColor=none;align=left;verticalAlign=middle;spacingTop=-1;spacingLeft=3;spacingRight=3;rotatable=0;labelPosition=right;points=[];portConstraint=eastwest;strokeColor=inherit;" parent="YDc8JTq9BG1FTdDbgutB-60" vertex="1">
          <mxGeometry y="26" width="160" height="8" as="geometry" />
        </mxCell>
        <mxCell id="YDc8JTq9BG1FTdDbgutB-63" value="+ rotate() : void&lt;div&gt;+ moveDown() : void&lt;/div&gt;&lt;div&gt;+ moveLeft() : void&lt;/div&gt;&lt;div&gt;+ moveRight() : void&lt;/div&gt;&lt;div&gt;&amp;nbsp;+ create() : void&lt;br&gt;&amp;nbsp;+ del() : void&lt;br&gt;&lt;/div&gt;" style="text;strokeColor=none;fillColor=none;align=left;verticalAlign=top;spacingLeft=4;spacingRight=4;overflow=hidden;rotatable=0;points=[[0,0.5],[1,0.5]];portConstraint=eastwest;whiteSpace=wrap;html=1;" parent="YDc8JTq9BG1FTdDbgutB-60" vertex="1">
          <mxGeometry y="34" width="160" height="106" as="geometry" />
        </mxCell>
        <mxCell id="YDc8JTq9BG1FTdDbgutB-64" value="&lt;span style=&quot;font-weight: normal;&quot;&gt;ZShape&lt;/span&gt;" style="swimlane;fontStyle=1;align=center;verticalAlign=top;childLayout=stackLayout;horizontal=1;startSize=26;horizontalStack=0;resizeParent=1;resizeParentMax=0;resizeLast=0;collapsible=1;marginBottom=0;whiteSpace=wrap;html=1;" parent="1" vertex="1">
          <mxGeometry x="1910" y="220" width="160" height="130" as="geometry" />
        </mxCell>
        <mxCell id="YDc8JTq9BG1FTdDbgutB-66" value="" style="line;strokeWidth=1;fillColor=none;align=left;verticalAlign=middle;spacingTop=-1;spacingLeft=3;spacingRight=3;rotatable=0;labelPosition=right;points=[];portConstraint=eastwest;strokeColor=inherit;" parent="YDc8JTq9BG1FTdDbgutB-64" vertex="1">
          <mxGeometry y="26" width="160" height="8" as="geometry" />
        </mxCell>
        <mxCell id="YDc8JTq9BG1FTdDbgutB-67" value="+ rotate() : void&lt;div&gt;+ moveDown() : void&lt;/div&gt;&lt;div&gt;+ moveLeft() : void&lt;/div&gt;&lt;div&gt;+ moveRight() : void&lt;/div&gt;&lt;div&gt;&amp;nbsp;+ create() : void&lt;br&gt;&amp;nbsp;+ del() : void&lt;br&gt;&lt;/div&gt;" style="text;strokeColor=none;fillColor=none;align=left;verticalAlign=top;spacingLeft=4;spacingRight=4;overflow=hidden;rotatable=0;points=[[0,0.5],[1,0.5]];portConstraint=eastwest;whiteSpace=wrap;html=1;" parent="YDc8JTq9BG1FTdDbgutB-64" vertex="1">
          <mxGeometry y="34" width="160" height="96" as="geometry" />
        </mxCell>
        <mxCell id="YDc8JTq9BG1FTdDbgutB-68" value="&lt;span style=&quot;font-weight: normal;&quot;&gt;SShape&lt;/span&gt;" style="swimlane;fontStyle=1;align=center;verticalAlign=top;childLayout=stackLayout;horizontal=1;startSize=26;horizontalStack=0;resizeParent=1;resizeParentMax=0;resizeLast=0;collapsible=1;marginBottom=0;whiteSpace=wrap;html=1;" parent="1" vertex="1">
          <mxGeometry x="2120" y="215" width="160" height="140" as="geometry" />
        </mxCell>
        <mxCell id="YDc8JTq9BG1FTdDbgutB-69" value="" style="line;strokeWidth=1;fillColor=none;align=left;verticalAlign=middle;spacingTop=-1;spacingLeft=3;spacingRight=3;rotatable=0;labelPosition=right;points=[];portConstraint=eastwest;strokeColor=inherit;" parent="YDc8JTq9BG1FTdDbgutB-68" vertex="1">
          <mxGeometry y="26" width="160" height="8" as="geometry" />
        </mxCell>
        <mxCell id="YDc8JTq9BG1FTdDbgutB-70" value="+ rotate() : void&lt;div&gt;+ moveDown() : void&lt;/div&gt;&lt;div&gt;+ moveLeft() : void&lt;/div&gt;&lt;div&gt;+ moveRight() : void&lt;/div&gt;&lt;div&gt;&amp;nbsp;+ create() : void&lt;br&gt;&amp;nbsp;+ del() : void&lt;br&gt;&lt;/div&gt;" style="text;strokeColor=none;fillColor=none;align=left;verticalAlign=top;spacingLeft=4;spacingRight=4;overflow=hidden;rotatable=0;points=[[0,0.5],[1,0.5]];portConstraint=eastwest;whiteSpace=wrap;html=1;" parent="YDc8JTq9BG1FTdDbgutB-68" vertex="1">
          <mxGeometry y="34" width="160" height="106" as="geometry" />
        </mxCell>
        <mxCell id="YDc8JTq9BG1FTdDbgutB-71" value="&lt;span style=&quot;font-weight: normal;&quot;&gt;LShape&lt;/span&gt;" style="swimlane;fontStyle=1;align=center;verticalAlign=top;childLayout=stackLayout;horizontal=1;startSize=26;horizontalStack=0;resizeParent=1;resizeParentMax=0;resizeLast=0;collapsible=1;marginBottom=0;whiteSpace=wrap;html=1;" parent="1" vertex="1">
          <mxGeometry x="2350" y="219" width="160" height="140" as="geometry" />
        </mxCell>
        <mxCell id="YDc8JTq9BG1FTdDbgutB-72" value="" style="line;strokeWidth=1;fillColor=none;align=left;verticalAlign=middle;spacingTop=-1;spacingLeft=3;spacingRight=3;rotatable=0;labelPosition=right;points=[];portConstraint=eastwest;strokeColor=inherit;" parent="YDc8JTq9BG1FTdDbgutB-71" vertex="1">
          <mxGeometry y="26" width="160" height="8" as="geometry" />
        </mxCell>
        <mxCell id="YDc8JTq9BG1FTdDbgutB-73" value="+ rotate() : void&lt;div&gt;+ moveDown() : void&lt;/div&gt;&lt;div&gt;+ moveLeft() : void&lt;/div&gt;&lt;div&gt;+ moveRight() : void&lt;/div&gt;&lt;div&gt;&amp;nbsp;+ create() : void&lt;br&gt;&amp;nbsp;+ del() : void&lt;br&gt;&lt;/div&gt;" style="text;strokeColor=none;fillColor=none;align=left;verticalAlign=top;spacingLeft=4;spacingRight=4;overflow=hidden;rotatable=0;points=[[0,0.5],[1,0.5]];portConstraint=eastwest;whiteSpace=wrap;html=1;" parent="YDc8JTq9BG1FTdDbgutB-71" vertex="1">
          <mxGeometry y="34" width="160" height="106" as="geometry" />
        </mxCell>
        <mxCell id="YDc8JTq9BG1FTdDbgutB-74" value="&lt;span style=&quot;font-weight: normal;&quot;&gt;JShape&lt;/span&gt;" style="swimlane;fontStyle=1;align=center;verticalAlign=top;childLayout=stackLayout;horizontal=1;startSize=26;horizontalStack=0;resizeParent=1;resizeParentMax=0;resizeLast=0;collapsible=1;marginBottom=0;whiteSpace=wrap;html=1;" parent="1" vertex="1">
          <mxGeometry x="2570" y="226" width="160" height="130" as="geometry" />
        </mxCell>
        <mxCell id="YDc8JTq9BG1FTdDbgutB-75" value="" style="line;strokeWidth=1;fillColor=none;align=left;verticalAlign=middle;spacingTop=-1;spacingLeft=3;spacingRight=3;rotatable=0;labelPosition=right;points=[];portConstraint=eastwest;strokeColor=inherit;" parent="YDc8JTq9BG1FTdDbgutB-74" vertex="1">
          <mxGeometry y="26" width="160" height="8" as="geometry" />
        </mxCell>
        <mxCell id="YDc8JTq9BG1FTdDbgutB-76" value="+ rotate() : void&lt;div&gt;+ moveDown() : void&lt;/div&gt;&lt;div&gt;+ moveLeft() : void&lt;/div&gt;&lt;div&gt;+ moveRight() : void&lt;/div&gt;&lt;div&gt;&amp;nbsp;+ create() : void&lt;br&gt;&amp;nbsp;+ del() : void&lt;br&gt;&lt;/div&gt;" style="text;strokeColor=none;fillColor=none;align=left;verticalAlign=top;spacingLeft=4;spacingRight=4;overflow=hidden;rotatable=0;points=[[0,0.5],[1,0.5]];portConstraint=eastwest;whiteSpace=wrap;html=1;" parent="YDc8JTq9BG1FTdDbgutB-74" vertex="1">
          <mxGeometry y="34" width="160" height="96" as="geometry" />
        </mxCell>
        <mxCell id="YDc8JTq9BG1FTdDbgutB-86" value="C &lt;span style=&quot;font-weight: 400;&quot;&gt;Cell&lt;/span&gt;" style="swimlane;fontStyle=1;align=center;verticalAlign=top;childLayout=stackLayout;horizontal=1;startSize=26;horizontalStack=0;resizeParent=1;resizeParentMax=0;resizeLast=0;collapsible=1;marginBottom=0;whiteSpace=wrap;html=1;" parent="1" vertex="1">
          <mxGeometry x="290" y="640" width="160" height="68" as="geometry" />
        </mxCell>
        <mxCell id="YDc8JTq9BG1FTdDbgutB-87" value="+ isFilled : boolean&lt;div&gt;+ color : Color&lt;/div&gt;" style="text;strokeColor=none;fillColor=none;align=left;verticalAlign=top;spacingLeft=4;spacingRight=4;overflow=hidden;rotatable=0;points=[[0,0.5],[1,0.5]];portConstraint=eastwest;whiteSpace=wrap;html=1;" parent="YDc8JTq9BG1FTdDbgutB-86" vertex="1">
          <mxGeometry y="26" width="160" height="34" as="geometry" />
        </mxCell>
        <mxCell id="YDc8JTq9BG1FTdDbgutB-88" value="" style="line;strokeWidth=1;fillColor=none;align=left;verticalAlign=middle;spacingTop=-1;spacingLeft=3;spacingRight=3;rotatable=0;labelPosition=right;points=[];portConstraint=eastwest;strokeColor=inherit;" parent="YDc8JTq9BG1FTdDbgutB-86" vertex="1">
          <mxGeometry y="60" width="160" height="8" as="geometry" />
        </mxCell>
        <mxCell id="YDc8JTq9BG1FTdDbgutB-97" value="" style="endArrow=block;endFill=0;endSize=12;html=1;rounded=0;exitX=0.989;exitY=0.974;exitDx=0;exitDy=0;exitPerimeter=0;entryX=0;entryY=0.5;entryDx=0;entryDy=0;dashed=1;" parent="1" source="YDc8JTq9BG1FTdDbgutB-55" target="o0_Tk5n6dDroqkROQLT0-5" edge="1">
          <mxGeometry width="160" relative="1" as="geometry">
            <mxPoint x="1500" y="380" as="sourcePoint" />
            <mxPoint x="1755.44" y="505.12800000000004" as="targetPoint" />
          </mxGeometry>
        </mxCell>
        <mxCell id="YDc8JTq9BG1FTdDbgutB-98" value="" style="endArrow=block;endFill=0;endSize=12;html=1;rounded=0;exitX=0.992;exitY=1.003;exitDx=0;exitDy=0;exitPerimeter=0;entryX=0;entryY=0.5;entryDx=0;entryDy=0;dashed=1;" parent="1" source="YDc8JTq9BG1FTdDbgutB-59" edge="1">
          <mxGeometry width="160" relative="1" as="geometry">
            <mxPoint x="1560" y="390" as="sourcePoint" />
            <mxPoint x="1754" y="463" as="targetPoint" />
          </mxGeometry>
        </mxCell>
        <mxCell id="YDc8JTq9BG1FTdDbgutB-99" value="" style="endArrow=block;endFill=0;endSize=12;html=1;rounded=0;exitX=1;exitY=0.5;exitDx=0;exitDy=0;entryX=0.5;entryY=0;entryDx=0;entryDy=0;dashed=1;" parent="1" source="YDc8JTq9BG1FTdDbgutB-63" edge="1">
          <mxGeometry width="160" relative="1" as="geometry">
            <mxPoint x="1880" y="380" as="sourcePoint" />
            <mxPoint x="1834" y="410" as="targetPoint" />
          </mxGeometry>
        </mxCell>
        <mxCell id="YDc8JTq9BG1FTdDbgutB-101" value="" style="endArrow=block;endFill=0;endSize=12;html=1;rounded=0;exitX=0.435;exitY=0.993;exitDx=0;exitDy=0;exitPerimeter=0;entryX=0.994;entryY=0.152;entryDx=0;entryDy=0;entryPerimeter=0;dashed=1;" parent="1" source="YDc8JTq9BG1FTdDbgutB-70" target="o0_Tk5n6dDroqkROQLT0-5" edge="1">
          <mxGeometry width="160" relative="1" as="geometry">
            <mxPoint x="2180" y="420" as="sourcePoint" />
            <mxPoint x="1940" y="440" as="targetPoint" />
          </mxGeometry>
        </mxCell>
        <mxCell id="YDc8JTq9BG1FTdDbgutB-102" value="" style="endArrow=block;endFill=0;endSize=12;html=1;rounded=0;exitX=0.244;exitY=0.996;exitDx=0;exitDy=0;exitPerimeter=0;entryX=1;entryY=0.5;entryDx=0;entryDy=0;dashed=1;" parent="1" source="YDc8JTq9BG1FTdDbgutB-73" target="o0_Tk5n6dDroqkROQLT0-5" edge="1">
          <mxGeometry width="160" relative="1" as="geometry">
            <mxPoint x="2230" y="420" as="sourcePoint" />
            <mxPoint x="1940" y="500" as="targetPoint" />
          </mxGeometry>
        </mxCell>
        <mxCell id="YDc8JTq9BG1FTdDbgutB-103" value="" style="endArrow=diamondThin;endFill=1;endSize=24;html=1;rounded=0;entryX=1.02;entryY=0.812;entryDx=0;entryDy=0;entryPerimeter=0;exitX=-0.012;exitY=0.81;exitDx=0;exitDy=0;exitPerimeter=0;" parent="1" source="o0_Tk5n6dDroqkROQLT0-5" target="YDc8JTq9BG1FTdDbgutB-43" edge="1">
          <mxGeometry width="160" relative="1" as="geometry">
            <mxPoint x="1700" y="560" as="sourcePoint" />
            <mxPoint x="990" y="380" as="targetPoint" />
          </mxGeometry>
        </mxCell>
        <mxCell id="YDc8JTq9BG1FTdDbgutB-104" value="" style="endArrow=diamondThin;endFill=1;endSize=24;html=1;rounded=0;exitX=0.546;exitY=0.002;exitDx=0;exitDy=0;exitPerimeter=0;entryX=0.75;entryY=1;entryDx=0;entryDy=0;" parent="1" source="YDc8JTq9BG1FTdDbgutB-40" target="YDc8JTq9BG1FTdDbgutB-31" edge="1">
          <mxGeometry width="160" relative="1" as="geometry">
            <mxPoint x="390" y="330" as="sourcePoint" />
            <mxPoint x="550" y="330" as="targetPoint" />
          </mxGeometry>
        </mxCell>
        <mxCell id="YDc8JTq9BG1FTdDbgutB-106" value="" style="endArrow=diamondThin;endFill=1;endSize=24;html=1;rounded=0;entryX=1.014;entryY=0.549;entryDx=0;entryDy=0;entryPerimeter=0;exitX=0.299;exitY=0.012;exitDx=0;exitDy=0;exitPerimeter=0;" parent="1" source="YDc8JTq9BG1FTdDbgutB-48" target="YDc8JTq9BG1FTdDbgutB-31" edge="1">
          <mxGeometry width="160" relative="1" as="geometry">
            <mxPoint x="660" y="310" as="sourcePoint" />
            <mxPoint x="820" y="310" as="targetPoint" />
          </mxGeometry>
        </mxCell>
        <mxCell id="YDc8JTq9BG1FTdDbgutB-108" value="" style="endArrow=block;endFill=0;endSize=12;html=1;rounded=0;exitX=0.441;exitY=1.034;exitDx=0;exitDy=0;exitPerimeter=0;dashed=1;" parent="1" source="YDc8JTq9BG1FTdDbgutB-39" target="o0_Tk5n6dDroqkROQLT0-4" edge="1">
          <mxGeometry width="160" relative="1" as="geometry">
            <mxPoint x="140" y="320" as="sourcePoint" />
            <mxPoint x="300" y="320" as="targetPoint" />
          </mxGeometry>
        </mxCell>
        <mxCell id="YDc8JTq9BG1FTdDbgutB-111" value="" style="endArrow=diamondThin;endFill=0;endSize=24;html=1;rounded=0;exitX=0.5;exitY=0;exitDx=0;exitDy=0;entryX=0.499;entryY=1.014;entryDx=0;entryDy=0;entryPerimeter=0;" parent="1" source="YDc8JTq9BG1FTdDbgutB-86" target="YDc8JTq9BG1FTdDbgutB-43" edge="1">
          <mxGeometry width="160" relative="1" as="geometry">
            <mxPoint x="490" y="460" as="sourcePoint" />
            <mxPoint x="650" y="460" as="targetPoint" />
          </mxGeometry>
        </mxCell>
        <mxCell id="o0_Tk5n6dDroqkROQLT0-1" value="" style="endArrow=diamondThin;endFill=0;endSize=24;html=1;rounded=0;entryX=1;entryY=0.75;entryDx=0;entryDy=0;exitX=-0.012;exitY=0.151;exitDx=0;exitDy=0;exitPerimeter=0;" parent="1" source="YDc8JTq9BG1FTdDbgutB-44" target="YDc8JTq9BG1FTdDbgutB-31" edge="1">
          <mxGeometry width="160" relative="1" as="geometry">
            <mxPoint x="530" y="360" as="sourcePoint" />
            <mxPoint x="450" y="190" as="targetPoint" />
          </mxGeometry>
        </mxCell>
        <mxCell id="o0_Tk5n6dDroqkROQLT0-4" value="&lt;p style=&quot;margin:0px;margin-top:4px;text-align:center;&quot;&gt;&lt;i&gt;&amp;lt;&amp;lt;&lt;b&gt;Interface&lt;/b&gt;&amp;gt;&amp;gt;&lt;/i&gt;&lt;br&gt;ShapeFactory&lt;br&gt;&lt;/p&gt;&lt;hr size=&quot;1&quot; style=&quot;border-style:solid;&quot;&gt;&lt;p style=&quot;margin:0px;margin-left:4px;&quot;&gt;&lt;/p&gt;&lt;p style=&quot;margin:0px;margin-left:4px;&quot;&gt;&lt;br&gt;&lt;/p&gt;&lt;p style=&quot;margin:0px;margin-left:4px;&quot;&gt;&lt;br&gt;&lt;/p&gt;&lt;p style=&quot;margin:0px;margin-left:4px;&quot;&gt;+ createShape() : Shape&lt;br&gt;&lt;/p&gt;" style="verticalAlign=top;align=left;overflow=fill;html=1;whiteSpace=wrap;" parent="1" vertex="1">
          <mxGeometry x="40" y="384" width="190" height="100" as="geometry" />
        </mxCell>
        <mxCell id="o0_Tk5n6dDroqkROQLT0-5" value="&lt;p style=&quot;margin:0px;margin-top:4px;text-align:center;&quot;&gt;&lt;i&gt;&amp;lt;&amp;lt;&lt;b&gt;Abstract&lt;/b&gt;&amp;gt;&amp;gt;&lt;/i&gt;&lt;br&gt;Shape&lt;/p&gt;&lt;hr size=&quot;1&quot; style=&quot;border-style:solid;&quot;&gt;&lt;p style=&quot;margin:0px;margin-left:4px;&quot;&gt;+ x : int&lt;/p&gt;&lt;div&gt;&amp;nbsp;+ y : int&lt;/div&gt;&lt;div&gt;&amp;nbsp;+ z : int&lt;/div&gt;&lt;hr size=&quot;1&quot; style=&quot;border-style:solid;&quot;&gt;&lt;p style=&quot;margin:0px;margin-left:4px;&quot;&gt;+ rotate() : void&lt;/p&gt;&lt;div&gt;&amp;nbsp;+ moveDown() : void&lt;/div&gt;&lt;div&gt;&amp;nbsp;+ moveLeft() : void&lt;/div&gt;&lt;div&gt;&amp;nbsp;+ moveRight() : void&lt;br&gt;&amp;nbsp;+ create() : void&lt;br&gt;&amp;nbsp;+ del() : void&lt;/div&gt;" style="verticalAlign=top;align=left;overflow=fill;html=1;whiteSpace=wrap;" parent="1" vertex="1">
          <mxGeometry x="1740" y="410" width="190" height="200" as="geometry" />
        </mxCell>
        <mxCell id="4KDVgMdTf2GXOLqvVomM-2" value="" style="endArrow=diamondThin;endFill=0;endSize=24;html=1;rounded=0;exitX=0.5;exitY=0;exitDx=0;exitDy=0;" parent="1" source="YDc8JTq9BG1FTdDbgutB-36" target="YDc8JTq9BG1FTdDbgutB-31" edge="1">
          <mxGeometry width="160" relative="1" as="geometry">
            <mxPoint x="290" y="300" as="sourcePoint" />
            <mxPoint x="450" y="300" as="targetPoint" />
          </mxGeometry>
        </mxCell>
        <mxCell id="4KDVgMdTf2GXOLqvVomM-3" value="" style="endArrow=block;dashed=1;endFill=0;endSize=12;html=1;rounded=0;exitX=0.432;exitY=1.038;exitDx=0;exitDy=0;exitPerimeter=0;entryX=0.933;entryY=-0.009;entryDx=0;entryDy=0;entryPerimeter=0;" parent="1" source="YDc8JTq9BG1FTdDbgutB-67" target="o0_Tk5n6dDroqkROQLT0-5" edge="1">
          <mxGeometry width="160" relative="1" as="geometry">
            <mxPoint x="1970" y="370" as="sourcePoint" />
            <mxPoint x="2130" y="370" as="targetPoint" />
          </mxGeometry>
        </mxCell>
        <mxCell id="4KDVgMdTf2GXOLqvVomM-4" value="" style="endArrow=block;dashed=1;endFill=0;endSize=12;html=1;rounded=0;exitX=0.498;exitY=1.013;exitDx=0;exitDy=0;exitPerimeter=0;entryX=1;entryY=0.75;entryDx=0;entryDy=0;" parent="1" source="YDc8JTq9BG1FTdDbgutB-76" target="o0_Tk5n6dDroqkROQLT0-5" edge="1">
          <mxGeometry width="160" relative="1" as="geometry">
            <mxPoint x="2440" y="510" as="sourcePoint" />
            <mxPoint x="2600" y="510" as="targetPoint" />
          </mxGeometry>
        </mxCell>
      </root>
    </mxGraphModel>
  </diagram>
</mxfile>
